<mxfile host="app.diagrams.net" agent="Mozilla/5.0 (Windows NT 10.0; Win64; x64) AppleWebKit/537.36 (KHTML, like Gecko) Chrome/135.0.0.0 Safari/537.36" version="25.0.3">
  <diagram name="PÃ¡gina-1" id="TmFzkwMfS5eXsYb1jW1r">
    <mxGraphModel dx="1120" dy="426" grid="1" gridSize="10" guides="1" tooltips="1" connect="1" arrows="1" fold="1" page="1" pageScale="1" pageWidth="827" pageHeight="1169" math="0" shadow="0">
      <root>
        <mxCell id="0" />
        <mxCell id="1" parent="0" />
        <mxCell id="2Q1fJGEpNuvyJ4HPmWeD-5" value="Paciente" style="whiteSpace=wrap;html=1;align=center;" vertex="1" parent="1">
          <mxGeometry x="10" y="300" width="100" height="40" as="geometry" />
        </mxCell>
        <mxCell id="2Q1fJGEpNuvyJ4HPmWeD-6" value="" style="endArrow=none;html=1;rounded=0;" edge="1" parent="1">
          <mxGeometry relative="1" as="geometry">
            <mxPoint x="110" y="319.5" as="sourcePoint" />
            <mxPoint x="190" y="320" as="targetPoint" />
          </mxGeometry>
        </mxCell>
        <mxCell id="2Q1fJGEpNuvyJ4HPmWeD-7" value="Senha" style="shape=associativeEntity;whiteSpace=wrap;html=1;align=center;" vertex="1" parent="1">
          <mxGeometry x="390" y="290" width="140" height="60" as="geometry" />
        </mxCell>
        <mxCell id="2Q1fJGEpNuvyJ4HPmWeD-10" value="0,n" style="text;strokeColor=none;align=center;fillColor=none;html=1;verticalAlign=middle;whiteSpace=wrap;rounded=0;" vertex="1" parent="1">
          <mxGeometry x="110" y="290" width="60" height="30" as="geometry" />
        </mxCell>
        <mxCell id="2Q1fJGEpNuvyJ4HPmWeD-12" value="" style="shape=rhombus;perimeter=rhombusPerimeter;whiteSpace=wrap;html=1;align=center;" vertex="1" parent="1">
          <mxGeometry x="190" y="290" width="120" height="60" as="geometry" />
        </mxCell>
        <mxCell id="2Q1fJGEpNuvyJ4HPmWeD-13" value="" style="endArrow=classic;html=1;rounded=0;" edge="1" parent="1">
          <mxGeometry width="50" height="50" relative="1" as="geometry">
            <mxPoint x="224" y="319.5" as="sourcePoint" />
            <mxPoint x="274" y="319.5" as="targetPoint" />
          </mxGeometry>
        </mxCell>
        <mxCell id="2Q1fJGEpNuvyJ4HPmWeD-15" value="pega" style="text;strokeColor=none;align=center;fillColor=none;html=1;verticalAlign=middle;whiteSpace=wrap;rounded=0;" vertex="1" parent="1">
          <mxGeometry x="220" y="260" width="60" height="30" as="geometry" />
        </mxCell>
        <mxCell id="2Q1fJGEpNuvyJ4HPmWeD-16" value="" style="endArrow=none;html=1;rounded=0;" edge="1" parent="1">
          <mxGeometry relative="1" as="geometry">
            <mxPoint x="310" y="319.5" as="sourcePoint" />
            <mxPoint x="390" y="320" as="targetPoint" />
          </mxGeometry>
        </mxCell>
        <mxCell id="2Q1fJGEpNuvyJ4HPmWeD-22" value="" style="endArrow=none;html=1;rounded=0;entryX=0.5;entryY=0;entryDx=0;entryDy=0;" edge="1" parent="1" target="2Q1fJGEpNuvyJ4HPmWeD-23">
          <mxGeometry relative="1" as="geometry">
            <mxPoint x="459.5" y="350" as="sourcePoint" />
            <mxPoint x="460" y="440" as="targetPoint" />
          </mxGeometry>
        </mxCell>
        <mxCell id="2Q1fJGEpNuvyJ4HPmWeD-23" value="" style="rhombus;whiteSpace=wrap;html=1;" vertex="1" parent="1">
          <mxGeometry x="435" y="440" width="50" height="50" as="geometry" />
        </mxCell>
        <mxCell id="2Q1fJGEpNuvyJ4HPmWeD-24" value="" style="endArrow=classic;html=1;rounded=0;" edge="1" parent="1">
          <mxGeometry width="50" height="50" relative="1" as="geometry">
            <mxPoint x="459.5" y="447.75" as="sourcePoint" />
            <mxPoint x="459.5" y="482.25" as="targetPoint" />
          </mxGeometry>
        </mxCell>
        <mxCell id="2Q1fJGEpNuvyJ4HPmWeD-25" value="entrega" style="text;strokeColor=none;align=center;fillColor=none;html=1;verticalAlign=middle;whiteSpace=wrap;rounded=0;" vertex="1" parent="1">
          <mxGeometry x="480" y="430" width="60" height="30" as="geometry" />
        </mxCell>
        <mxCell id="2Q1fJGEpNuvyJ4HPmWeD-26" value="Recepcionista" style="whiteSpace=wrap;html=1;align=center;" vertex="1" parent="1">
          <mxGeometry x="410" y="585" width="100" height="40" as="geometry" />
        </mxCell>
        <mxCell id="2Q1fJGEpNuvyJ4HPmWeD-27" value="" style="endArrow=none;html=1;rounded=0;exitX=0.5;exitY=1;exitDx=0;exitDy=0;" edge="1" parent="1" source="2Q1fJGEpNuvyJ4HPmWeD-23">
          <mxGeometry relative="1" as="geometry">
            <mxPoint x="459.5" y="495" as="sourcePoint" />
            <mxPoint x="460" y="585" as="targetPoint" />
          </mxGeometry>
        </mxCell>
      </root>
    </mxGraphModel>
  </diagram>
</mxfile>
